<svg xmlns="http://www.w3.org/2000/svg" viewBox="0 0 120 120">
  <defs>
    <linearGradient id="bg" x1="0" y1="0" x2="1" y2="1">
      <stop offset="0" stop-color="#eef2f8"/>
      <stop offset="1" stop-color="#cfdcea"/>
    </linearGradient>
  </defs>
  <rect width="120" height="120" rx="14" fill="url(#bg)"/>
  <!-- 肩膀與西裝 -->
  <path d="M22,120 C22,94 40,84 60,84 C80,84 98,94 98,120 Z" fill="#41586e"/>
  <path d="M52,86 L60,104 L68,86 Z" fill="#f3f5f8"/>
  <rect x="57" y="92" width="6" height="16" rx="2" fill="#8d2f2f"/>
  <!-- 頭 -->
  <circle cx="60" cy="56" r="22" fill="#a8bfd4"/>
  <path d="M38,52 C40,34 52,28 62,29 C74,30 82,38 81,50 C74,46 68,42 62,42 C52,42 44,46 38,52 Z" fill="#3d4a58"/>
  <!-- 臉部簡筆 -->
  <circle cx="52" cy="55" r="2.2" fill="#2c3947"/>
  <circle cx="68" cy="55" r="2.2" fill="#2c3947"/>
  <path d="M54,66 C57,69 63,69 66,66" stroke="#2c3947" stroke-width="2" fill="none" stroke-linecap="round"/>
  <!-- 球棍分子模型 -->
  <g stroke="#7d8ea0" stroke-width="3">
    <line x1="88" y1="26" x2="104" y2="40"/>
    <line x1="88" y1="26" x2="72" y2="34"/>
    <line x1="104" y1="40" x2="102" y2="58"/>
  </g>
  <circle cx="88" cy="26" r="8" fill="#33465c"/>
  <circle cx="104" cy="40" r="6.5" fill="#546c85"/>
  <circle cx="72" cy="34" r="5.5" fill="#546c85"/>
  <circle cx="102" cy="58" r="5.5" fill="#33465c"/>
  <g stroke="#7d8ea0" stroke-width="2.5">
    <line x1="18" y1="78" x2="32" y2="68"/>
    <line x1="18" y1="78" x2="14" y2="94"/>
  </g>
  <circle cx="18" cy="78" r="6.5" fill="#33465c"/>
  <circle cx="32" cy="68" r="5" fill="#546c85"/>
  <circle cx="14" cy="94" r="5" fill="#546c85"/>
</svg>
